<?xml version="1.0" standalone="no"?>
<!DOCTYPE svg PUBLIC "-//W3C//DTD SVG 20010904//EN"
 "http://www.w3.org/TR/2001/REC-SVG-20010904/DTD/svg10.dtd">
<svg version="1.0" xmlns="http://www.w3.org/2000/svg"
 width="641.000000pt" height="641.000000pt" viewBox="0 0 641.000000 641.000000"
 preserveAspectRatio="xMidYMid meet">
<metadata>
Created by potrace 1.14, written by Peter Selinger 2001-2017
</metadata>
<g transform="translate(0.000000,641.000000) scale(0.100000,-0.100000)"
fill="#000000" stroke="none">
<path d="M3070 6089 c-283 -25 -593 -124 -830 -267 -406 -245 -697 -647 -844
-1164 -20 -68 -37 -134 -40 -148 -2 -14 -12 -58 -20 -97 -34 -160 -53 -349
-56 -580 0 -21 -1 -21 -54 -7 -92 24 -209 79 -296 137 -89 61 -260 242 -260
276 0 6 -16 62 -36 124 -58 179 -123 299 -195 360 -49 43 -85 51 -180 45 -120
-9 -199 -77 -234 -200 -23 -83 -19 -264 10 -398 124 -587 338 -1040 640 -1359
127 -134 305 -258 464 -323 36 -14 67 -31 69 -36 5 -17 -46 -229 -92 -382
-147 -490 -400 -960 -729 -1354 -56 -67 -65 -83 -62 -112 8 -85 82 -158 193
-190 89 -26 263 -26 422 1 136 22 325 72 380 100 235 119 567 163 866 114 131
-22 337 -87 404 -128 151 -93 421 -171 595 -172 180 -2 443 74 606 173 91 55
307 116 509 143 57 7 230 7 290 0 192 -24 335 -64 463 -127 63 -31 236 -77
392 -104 105 -18 286 -24 369 -12 70 10 169 59 198 99 44 59 59 126 35 151
-33 33 -194 240 -253 324 -218 313 -398 676 -513 1036 -32 101 -94 336 -105
400 l-7 36 53 17 c80 26 254 119 333 178 295 220 539 585 699 1044 92 267 153
543 155 708 3 186 -35 283 -134 340 -48 29 -153 43 -221 31 -56 -11 -138 -100
-190 -206 -37 -76 -114 -292 -114 -321 0 -29 -149 -194 -230 -254 -54 -41
-159 -99 -220 -123 -76 -30 -190 -61 -195 -53 -2 4 -5 59 -6 122 -5 282 -74
645 -174 914 -43 114 -159 344 -220 435 -274 406 -679 675 -1167 774 -179 36
-324 47 -468 35z"/>
</g>
</svg>
